<?xml version="1.0" standalone="no"?>
<!DOCTYPE svg PUBLIC "-//W3C//DTD SVG 20010904//EN"
 "http://www.w3.org/TR/2001/REC-SVG-20010904/DTD/svg10.dtd">
<svg version="1.0" xmlns="http://www.w3.org/2000/svg"
 width="640.000000pt" height="640.000000pt" viewBox="0 0 640.000000 640.000000"
 preserveAspectRatio="xMidYMid meet">
<metadata>
Created by potrace 1.11, written by Peter Selinger 2001-2013
</metadata>
<g transform="translate(0.000000,640.000000) scale(0.100000,-0.100000)"
fill="#000000" stroke="none">
<path d="M2038 6123 l-28 -4 -1 -187 c-1 -103 -2 -214 -3 -247 -6 -140 -18
-360 -21 -374 -1 -9 -6 -47 -9 -86 -4 -38 -9 -88 -12 -110 -2 -22 -6 -69 -9
-105 -3 -36 -19 -132 -36 -215 -17 -82 -33 -160 -35 -173 -3 -13 -18 -80 -34
-148 -16 -68 -32 -138 -35 -156 -3 -17 -8 -34 -10 -38 -2 -4 -11 -40 -20 -81
-9 -41 -18 -81 -20 -89 -2 -8 -10 -46 -19 -85 -9 -38 -35 -124 -57 -190 -43
-130 -94 -336 -104 -425 -4 -30 -8 -69 -10 -86 -21 -160 -24 -287 -12 -449 12
-151 19 -215 32 -275 3 -14 9 -48 14 -75 12 -62 63 -194 99 -255 15 -25 27
-47 27 -50 1 -11 51 -88 89 -135 53 -66 244 -256 293 -292 51 -38 82 -66 164
-146 66 -65 70 -72 90 -150 16 -66 19 -98 14 -162 -6 -75 -12 -91 -112 -295
-182 -374 -213 -472 -174 -563 34 -80 147 -140 301 -161 68 -9 126 -16 190
-22 36 -3 81 -9 100 -13 64 -14 1037 -3 1188 13 90 10 155 17 202 21 46 4 216
68 236 89 6 6 18 30 27 53 15 39 15 49 2 107 -15 63 -72 204 -153 376 -158
338 -172 376 -172 483 0 118 17 145 180 291 254 228 417 434 583 739 33 61 61
147 77 235 12 69 12 344 -1 487 -19 212 -12 180 -104 490 -15 50 -42 137 -61
195 -33 99 -68 225 -78 280 -2 14 -11 59 -20 100 -8 41 -17 86 -20 100 -2 14
-16 81 -31 150 -15 69 -27 134 -26 145 1 21 -15 115 -34 205 -11 52 -14 71
-20 137 -3 37 -10 97 -15 133 -5 36 -12 93 -15 128 -4 35 -9 73 -12 85 -15 61
-23 707 -9 767 3 14 0 27 -7 32 -12 8 -2318 9 -2369 1z m2204 -185 c3 -7 6
-123 7 -258 1 -135 4 -263 6 -285 3 -22 9 -89 15 -149 12 -114 14 -133 30
-261 5 -44 12 -102 15 -130 11 -107 27 -198 70 -390 24 -110 47 -216 51 -235
9 -42 8 -36 18 -85 14 -78 77 -295 141 -491 83 -253 130 -479 128 -614 0 -42
-12 -219 -18 -275 -22 -207 -173 -490 -373 -701 -185 -193 -289 -281 -396
-336 -55 -27 -111 -52 -125 -55 -14 -2 -96 -25 -181 -49 l-155 -45 -195 -4
c-175 -3 -242 0 -390 20 -112 15 -325 77 -399 117 -118 63 -140 77 -236 152
-130 101 -263 238 -323 334 -71 111 -167 304 -176 352 -2 14 -11 61 -19 106
-9 44 -19 110 -22 146 -4 35 -8 78 -10 94 -16 112 -12 235 11 354 13 69 27
150 30 180 4 30 11 64 17 75 6 11 12 37 13 58 1 21 9 46 17 55 8 9 20 42 27
72 7 30 24 87 37 125 32 94 130 498 148 610 8 50 17 101 20 115 8 39 33 190
40 235 3 23 8 52 10 65 3 14 10 57 15 95 6 39 15 84 20 101 16 46 18 61 25
175 3 57 8 129 10 159 3 30 7 102 10 160 3 58 7 119 9 135 2 17 7 72 11 124 4
51 9 101 10 110 2 9 4 24 4 34 1 16 57 17 1025 17 810 0 1025 -3 1028 -12z"/>
<path d="M4079 5839 c-39 -34 -123 -116 -139 -136 -8 -10 -49 -63 -90 -118
-41 -55 -77 -102 -80 -105 -62 -62 -141 -197 -180 -307 -36 -100 -46 -190 -44
-388 2 -168 33 -344 120 -675 8 -30 17 -71 20 -90 6 -38 24 -95 47 -150 8 -19
18 -55 21 -80 3 -25 8 -67 12 -95 9 -57 10 -268 2 -335 -16 -134 -102 -344
-168 -410 -82 -83 -186 -151 -251 -165 -56 -13 -87 -15 -244 -20 -116 -3 -162
-1 -205 12 -30 8 -59 16 -65 18 -60 14 -225 132 -225 161 0 3 -13 25 -29 48
-27 39 -92 167 -96 191 -2 6 -10 39 -20 75 -9 36 -19 74 -21 85 -15 60 -22
309 -11 375 27 172 78 330 152 473 14 26 23 47 20 47 -16 0 -194 -111 -257
-160 -21 -16 -29 -18 -32 -8 -5 14 -30 120 -31 128 -1 11 -79 159 -82 156 -2
-1 -6 -29 -9 -62 -7 -74 -105 -376 -180 -554 -31 -74 -69 -164 -83 -200 -65
-155 -92 -312 -86 -510 4 -151 7 -176 31 -275 58 -230 161 -404 348 -590 265
-262 557 -388 937 -402 143 -5 180 -3 349 23 70 11 277 86 367 134 227 119
437 322 556 537 40 72 87 174 92 198 1 5 8 30 15 55 7 25 15 50 16 55 2 6 6
26 9 45 4 19 10 52 15 72 9 43 6 320 -4 388 -18 118 -53 221 -133 390 -84 177
-257 619 -307 780 -45 149 -51 172 -61 250 -8 57 -12 84 -22 140 -10 58 -10
474 0 610 4 58 10 134 12 170 3 36 7 76 11 90 3 14 8 36 11 50 2 14 8 42 13
63 4 20 7 37 5 37 -1 0 -13 -9 -26 -21z"/>
</g>
</svg>
